<svg version="1.0" xmlns="http://www.w3.org/2000/svg" width="800" height="800" viewBox="0 0 600 600"><g fill="#2283D2"><path d="M283.9 20.4c-.4.4-6 1.1-12.5 1.6-15.4 1.3-24.9 2.7-27.3 4-1.1.5-3.5 1-5.5 1-1.9 0-3.8.4-4.1 1-.3.5-1.9 1-3.5 1s-3.9.4-5.2.9c-1.3.5-6.3 2.1-11.3 3.6-4.9 1.5-9.9 3.1-11 3.6-1.1.4-3 1.1-4.2 1.4-1.3.4-2.3 1.1-2.3 1.6s-.9.9-2 .9-2.8.4-3.8.9c-.9.5-4.4 2.1-7.7 3.6-11.9 5.4-26.2 12.9-28.6 15.1-.8.8-1.9 1.4-2.2 1.4-1.4 0-26 17.3-30.2 21.3-1.1 1-3.8 3.3-6 5-5.6 4.5-22.1 21.1-28 28.1-2.8 3.3-5.5 6.4-6.1 7-3.3 3.5-20.4 28.1-20.4 29.5 0 .5-.6 1.4-1.3 2-.8.6-2.4 3.2-3.8 5.8-1.3 2.7-3.4 6.5-4.6 8.5-1.3 2.1-2.3 4.4-2.3 5.3 0 .8-.4 1.5-1 1.5-.5 0-1 .6-1 1.2 0 .7-1.2 3.8-2.6 6.8-1.5 3-3.1 6.6-3.7 8-.5 1.4-1.5 3.8-2.2 5.5-2.5 6-3.3 8.1-6 17-1.5 4.9-3.2 10-3.6 11.3-.5 1.3-.9 3.5-.9 5 0 1.6-.5 3.3-1.1 3.9-.5.5-1.1 2.6-1.1 4.4 0 1.9-.5 4.3-1.1 5.4-2.3 4.4-5.1 35.5-5.1 55.5 0 21.1 2.9 51.3 5.4 55.9.5 1.1 1 3.5 1 5.5 0 1.9.4 3.8 1 4.1.5.3 1 1.9 1 3.5s.4 3.9.9 5.2c.4 1.3 2.1 6.3 3.6 11.3 2.7 8.9 3.5 11 6 17 .7 1.6 1.7 4.1 2.2 5.5.6 1.4 2.2 5 3.7 8 1.4 3 2.6 6.1 2.6 6.8 0 .6.5 1.2 1 1.2.6 0 1 .7 1 1.5 0 .9 1 3.2 2.3 5.3 1.2 2 3.3 5.8 4.6 8.5 1.4 2.6 3 5.2 3.8 5.8.7.6 1.3 1.5 1.3 2 0 1.9 16.5 25 24.5 34.4 6.5 7.6 24.5 25.6 32 32 10.7 9.1 31.6 23.8 38.5 27.1.8.4 1.7 1 2 1.3 1 1.1 14.7 8.2 24.5 12.6 3.3 1.5 6.8 3.1 7.7 3.6 1 .5 2.7.9 3.8.9 1.1 0 2 .4 2 .9s1 1.2 2.3 1.6c1.2.3 3.1 1 4.2 1.4 1.1.5 6.1 2.1 11 3.6 5 1.5 10 3.1 11.3 3.6 1.3.5 3.6.9 5.2.9s3.2.4 3.5 1c.3.5 2.2 1 4.1 1 2 0 4.4.5 5.5 1 4.6 2.5 35.3 5.5 55.9 5.4 21.5 0 48-2.6 55.8-5.4 1.8-.7 3.6-1 3.9-.7.3.4 2.1 0 4-.8 2-.8 4.8-1.5 6.4-1.5 1.5 0 3.1-.4 3.4-1 .3-.5 1.6-1 2.8-1 1.9 0 6-1.2 13.2-4 1.1-.4 3.8-1.3 6-1.9 2.2-.7 5.4-1.8 7-2.6 1.7-.7 4.1-1.7 5.5-2.3 2.2-.8 15.7-7 20-9.1.8-.4 3.8-2 6.5-3.6 2.8-1.5 5.9-3.3 7-3.9 21.9-12.2 52.8-37.6 68.5-56.5 2.5-3 5.2-6.1 6.1-7 .8-.9 2.6-3.2 3.9-5.1 1.4-1.9 3.2-4.3 4.1-5.3 2.9-3.2 14.6-20.7 16.5-24.7.4-.8 1-1.7 1.3-2 .3-.3 1.6-2.5 2.9-4.9 1.2-2.4 2.8-5.5 3.6-7 2-3.7 8.7-18.1 9.8-21.1.6-1.4 1.6-3.9 2.3-5.5.8-1.7 1.9-4.8 2.6-7 .6-2.2 1.5-4.9 2-6 .4-1.1 1.5-4.5 2.4-7.5 1-3 2.1-6.5 2.6-7.8.5-1.3.9-3.3.9-4.4 0-1.2.4-3.5.9-5.2 8.2-27.5 9.9-72.7 4.2-111.1-.5-3.3-1.4-7.3-2-8.8-.6-1.6-1.1-4.3-1.1-6.2 0-1.9-.4-3.6-.9-3.9-.5-.3-1.1-2.3-1.4-4.3-.8-5.9-1.7-9.5-3.2-12.8-.7-1.7-1.9-5-2.5-7.5-.7-2.5-1.6-5.4-2.1-6.5-.4-1.1-1.1-3-1.4-4.3-.4-1.2-1.1-2.2-1.6-2.2s-.9-.9-.9-2-.4-2.8-.9-3.8c-3.1-6.1-6.1-12.9-6.1-14 0-.6-.4-1.2-1-1.2-.5 0-1-.7-1-1.5 0-.9-1-3.2-2.3-5.3-1.3-2-2.6-4.4-3-5.2-.4-.8-1.8-3.3-3.2-5.5-1.4-2.2-2.8-4.7-3.2-5.5-2.1-4.5-16.6-24.6-25.3-35-5.8-6.9-24.3-25.6-29.5-29.7-2.2-1.7-4.9-4-6-5-4.6-4.4-28.8-21.3-30.4-21.3-.5 0-1.4-.6-2-1.3-.6-.8-3.2-2.4-5.8-3.8-2.7-1.3-6.5-3.4-8.5-4.6-2.1-1.3-4.4-2.3-5.3-2.3-.8 0-1.5-.5-1.5-1 0-.6-.6-1-1.2-1-1.1 0-7.9-3-14-6.1-1-.5-2.7-.9-3.8-.9-1.1 0-2-.4-2-.9s-1-1.2-2.2-1.6c-1.3-.3-3.2-1-4.3-1.4-5.5-2.2-15.4-5.4-18.3-5.8-1.8-.3-3.5-.9-3.8-1.4-.3-.5-2.3-.9-4.4-.9-2.1 0-4.2-.5-4.5-1-.3-.6-2.2-1-4.1-1-2 0-4.5-.5-5.7-1.1-2.1-1.2-9.4-2.3-25.2-4-11.9-1.2-45.8-2.3-46.6-1.5zm43.6 17.2c21.9 2.8 28.8 4 31.3 5.3 1.1.6 3.4 1.1 5.1 1.1 1.6 0 3.2.4 3.5.9.3.5 2 1.1 3.8 1.4 7.8 1.4 10.4 2 11.3 2.8.6.4 3.3 1.5 6 2.4 2.8.9 6.1 2.1 7.5 2.7 6 2.5 9.6 4.1 11.2 4.9 1 .5 2.4.9 3.2.9.8 0 1.6.4 1.8.9.2.7 4.5 3 19.5 10.5 1.3.6 2.3 1.4 2.3 1.8 0 .5.5.8 1 .8.6 0 2.3.8 3.8 1.8s5.6 3.8 9.2 6.2c16.6 11.1 37.4 29.4 49.9 44.1 7.7 9 12.4 14.9 13.5 16.8.5.8 2.3 3.4 4 5.7 1.7 2.2 3.7 5 4.3 6 .7 1 2.4 3.6 3.8 5.7s2.5 4.2 2.5 4.7c0 .6.3 1 .8 1 .4 0 1.2 1 1.8 2.3.6 1.2 3.9 7.8 7.4 14.7 3.4 6.9 6.9 14.1 7.7 16 .8 1.9 1.9 4.3 2.4 5.2.5 1 .9 2.5.9 3.3 0 .8.4 2.3 1 3.3 1.6 2.9 6 16.7 6 19 0 1.1.5 2.4 1 2.7.6.3 1 2 1 3.6 0 1.7.5 4 1.1 5.1 1.1 2.1 1.9 6 4.1 21.8 1.6 11 1.6 64.7 0 75-2.6 16.5-3 18.8-4.1 20.8-.6 1.1-1.1 3.2-1.1 4.6 0 1.4-.4 3.5-.9 4.8-1.2 3.2-3.6 11-3.6 12.3-.1 1-1.9 5.3-3.6 8.7-.5 1-.9 2.5-.9 3.3 0 .8-.4 2.3-.9 3.3-.4.9-1.6 3.5-2.6 5.7-.9 2.2-2.1 4.8-2.6 5.7-.5 1-.9 2.4-.9 3.2 0 .8-.3 1.6-.7 1.8-.5.1-2.3 3.2-4.1 6.8-8.4 16.7-18.1 31.6-30.9 47.5-8.2 10.1-29.4 31.6-36.7 37-2.2 1.7-5.3 4.2-7 5.6-4.2 3.4-19.2 13.9-20.1 13.9-.3 0-2.1 1-3.8 2.3-1.8 1.3-4.9 3.2-6.9 4.2-2.1 1.1-3.8 2.3-3.8 2.7 0 .5-.6.8-1.3.8-1.8 0-7.5 2.8-8.2 4.1-.4.5-1.5.9-2.6.9-1 0-1.9.4-1.9 1 0 .5-.7 1-1.5 1s-2.3.4-3.3.9c-4.5 2.5-13.5 6-21.7 8.6-4.9 1.5-9.4 3.2-9.9 3.6-.6.5-1.9.9-3 .9s-3.3.4-5 .9c-7.3 2.2-12.3 3.4-15.6 3.8-1.9.1-4.2.6-5 .9-4.5 1.9-19.7 2.8-46.5 2.8-29.7 0-38-.6-53-3.9-3.8-.9-8.7-1.8-10.8-2.2-2.1-.3-4-1-4.3-1.4-.3-.5-1.8-.9-3.5-.9-1.6 0-3.7-.4-4.7-.9-.9-.5-5.3-2.2-9.7-3.6-4.4-1.4-8.9-3-10-3.5-1.1-.5-3.8-1.6-6-2.5-6-2.5-12.8-5.6-14.5-6.6-.8-.4-3.5-1.9-6-3.2-8.3-4.3-14.5-7.9-16.1-9.3-.8-.8-1.9-1.4-2.3-1.4-.4 0-4.5-2.6-8.9-5.7-28-19.7-51.5-43.6-70.2-71.4-6.8-10.1-8.9-13.6-14.3-24.1-1.3-2.7-2.8-5-3.3-5.4-.5-.3-.9-1.4-.9-2.5 0-1-.4-1.9-1-1.9-.5 0-1-.7-1-1.5 0-1.4-.4-2.4-3.2-7.8-1.2-2.3-7.6-19.8-8.5-23.2-.2-1.1-.8-2.9-1.3-4-.9-2-1.5-4.6-2.9-12-.4-2.3-1.1-4.7-1.6-5.5-.5-.8-1.3-4-1.7-7-.4-3-1.3-9.1-2-13.5-1.6-10.6-1.6-64.2 0-75 2.4-16.1 3-19.3 4.1-21.3.6-1.1 1.1-3.4 1.1-5.1 0-1.6.5-3.3 1-3.6.6-.3 1-2.1 1-4s.5-3.7 1-4c.6-.3 1-1.9 1-3.5s.4-3.1.9-3.4c.5-.3 1.6-2.9 2.5-5.8.9-2.9 2.2-6.4 2.7-7.8 3.1-7.2 4.2-9.7 5-11.2.5-1 .9-2.5.9-3.3 0-.8.5-1.5 1-1.5.6 0 1-.9 1-1.9 0-1.1.4-2.2.9-2.6 1.3-.7 4.1-6.4 4.1-8.2 0-.7.4-1.3.8-1.3.5 0 1.9-2 3.1-4.5 3.4-6.9 15.9-24.9 24.8-36 8-9.9 29.2-31.3 36.7-37 2.2-1.7 5.3-4.2 7-5.6 4.5-3.7 19.3-13.9 20.2-13.9.4 0 1.5-.6 2.3-1.4 1.9-1.6 9.9-6.2 19.1-10.8 3.6-1.8 6.7-3.6 6.8-4.1.2-.4 1-.7 1.8-.7s2.2-.4 3.2-.9c1.7-.9 6.3-2.9 11.2-4.9 3.8-1.6 14.2-5.3 16.5-5.9 1.1-.2 2.9-.8 4-1.3s3.4-1.1 5-1.5c3.9-.8 9.4-2 18-4 10.7-2.4 20.7-3.6 35.5-4.4 13.8-.7 37.3-.4 44.5.5z"/><path d="M285.5 58.2c-3.3.4-6.8.9-7.7 1.1-4.7.6-6.4 8.9-2.5 12.5 2.1 2 3.4 2.2 14 2.2 6.4 0 12.7-.5 14-1.1 3.5-1.6 5.1-5.1 4.3-9.3-1.2-6.1-7.2-7.7-22.1-5.4zm-46 6.7c-1.1.5-4.7 1.6-8 2.6-3.3.9-6.8 2.1-7.7 2.6-1 .5-2.5.9-3.3.9-1.5 0-2.3.3-8.3 3.3-1.9.9-3.9 1.7-4.6 1.7-.7 0-2.6.6-4.2 1.4-1.6.8-6.3 3-10.4 5-13.3 6.4-33.2 18.8-43.9 27.4-10.4 8.2-31.2 29-38.4 38.2-12.5 15.9-27.9 41.8-33.7 56.5-.7 2-1.8 4.6-4 10-.6 1.6-1.8 5-2.6 7.5s-1.9 6.1-2.6 8c-2.3 7.2-4.4 16.3-5.7 25.2-.5 3.1-1.2 6.1-1.6 6.7-.6 1-1.2 7.3-3.2 30.8-.7 9.5 1.1 13.9 6.3 14.9 4.2.8 7.7-.8 9.3-4.3.6-1.3 1.1-7.6 1.1-14.1 0-6.4.7-15.5 1.5-20.2 3.2-17.4 3.6-19.6 4.6-22.6.5-1.7.9-4 .9-5.1 0-1.1.7-3.4 1.5-4.9.8-1.6 1.5-3.7 1.5-4.6 0-.9.5-2 1-2.3.6-.3 1-1.5 1-2.5 0-1.7 1.3-5.1 6.7-18 1.5-3.4 3.2-6.8 8-16 2.9-5.4 3.2-5.9 10.9-18 6.6-10.2 7.5-11.3 17.4-22.9 7.9-9.2 13.3-14.6 23-23.1 4.1-3.6 7.7-6.8 7.8-7.3.2-.4 1-.7 1.8-.7s1.4-.4 1.4-.8c0-1.2 21-14.7 31-20 3-1.6 6.4-3.4 7.5-3.9 1.1-.6 3.8-1.9 6-2.8 2.2-.9 5.8-2.6 8.1-3.6 2.2-1 4.8-1.9 5.7-1.9.9 0 1.9-.5 2.2-1 .3-.6 1.7-1 3-1s2.6-.4 2.9-.9c.4-.5 2.4-1.2 4.6-1.6 2.2-.4 4.2-1.1 4.6-1.6.3-.5 1.8-.9 3.3-.9 5.3 0 10.1-4.1 10.1-8.7 0-5.8-6.6-9.7-12.5-7.4z"/><path d="M155 162.6c-7.4 2.7-12.5 5.3-15 7.6-3.6 3.2-7.3 8.6-8.7 12.8-1.5 4.2-1.7 19.6-.3 20.5.6.3 1 1.8 1 3.3 0 2.2 13.9 16.5 78.8 81.5 43.3 43.4 79.9 79.5 81.4 80.3 3.7 1.9 12 1.8 16-.3 1.8-1 38.5-37.1 81.6-80.3 64.3-64.6 78.2-79 78.2-81.2 0-1.5.5-3 1-3.3 1.4-.9 1.2-16.3-.3-20.5-2.5-7.1-8.5-13.9-14.7-16.6-1.9-.9-4.6-2.1-5.9-2.8-1.3-.6-5.1-1.1-8.5-1.1-5.7 0-8.5.7-16.1 4.1-1.7.7-29.8 28.1-62.5 60.8-32.7 32.8-60.1 59.6-60.9 59.6-.7 0-27.9-26.6-60.4-59.1s-60.4-59.8-62.1-60.7c-7.1-3.7-18.6-6.1-22.6-4.6zm10.7 17.5c1.5.5 31.3 29.4 66.3 64.5l63.6 63.4h8.8l64.1-63.9c67.9-67.8 66-66.2 73.9-64.7 4.5.9 10.3 6.7 11.2 11.1 1.6 8.8 5.2 4.8-76.6 86.6-41.7 41.7-76.4 75.9-77 75.9-.6 0-35.2-34.2-77-75.9-65.4-65.4-76-76.4-76.6-79.5-2.2-11.9 8.5-21.6 19.3-17.5z"/><path d="M150.2 283.4c-1.7.7-3.7 1.7-4.4 2.4-.7.7-1.7 1.2-2.3 1.2-.6 0-2.7 1.7-4.7 3.7-3.1 3.4-4.5 5.5-7.9 12.5-.5 1-.9 5.6-.9 10.3 0 4.7.4 9.3.9 10.3.4.9 1.6 3.3 2.6 5.2 2.1 4.2 153.7 156.4 157.9 158.5 3.5 1.8 13.8 2 16.9.3 3.4-1.9 155.6-153.9 157.5-157.3.9-1.7 2.2-4.6 2.9-6.5 1.5-4.2 1.7-19.6.3-20.5-.5-.3-1-1.7-1-3 0-1.2-.7-2.5-1.5-2.9-.8-.3-1.5-1.1-1.5-1.9 0-2.2-7.2-8.3-13.2-11.1-4.5-2.1-7.2-2.6-13.2-2.6-4.1 0-7.8.4-8.1 1-.3.5-1.5 1-2.5 1s-2.5.7-3.4 1.5c-.8.8-2.1 1.5-2.8 1.5-.7 0-28.1 26.8-60.8 59.5-32.7 32.7-60.2 59.5-61 59.5-.8 0-28.1-26.6-60.5-59-44.3-44.4-60.1-59.6-63.5-61.2-2.5-1.1-5.3-2.4-6.2-2.9-2.5-1.3-15.7-.9-19.6.5zm15.6 16.1c2.6 1.1 22.9 20.7 66.9 64.8 62.8 62.6 63.3 63.2 67.3 63.2s4.5-.6 67.8-63.7c68.5-68.3 67-67.1 74.9-64.8 4.8 1.3 6.5 2.6 9.2 7 2.3 3.8 2.7 8.3 1.1 12.7-1.3 3.4-150.9 153.3-153 153.3-2.1 0-151.7-149.9-152.9-153.3-1.7-4.4-1.3-8.9 1-12.7 2.6-4.2 4.4-5.7 8.4-6.9 4.3-1.3 5.1-1.3 9.3.4z"/></g></svg>