<svg width="1200" height="630" viewBox="0 0 1200 630" xmlns="http://www.w3.org/2000/svg"><path fill="#fefbfb" d="M0 0h1200v630H0z"/><defs><clipPath id="a"><path d="M109 39h1048a4 4 0 0 1 4 4v496a4 4 0 0 1-4 4H109a4 4 0 0 1-4-4V43a4 4 0 0 1 4-4"/></clipPath></defs><g opacity=".9"><path fill="#ecebeb" d="M109 39h1048a4 4 0 0 1 4 4v496a4 4 0 0 1-4 4H109a4 4 0 0 1-4-4V43a4 4 0 0 1 4-4"/><path clip-path="url(#a)" fill="none" stroke="#000" stroke-width="8" d="M106.172 40.172A4 4 0 0 1 109 39h1048a4 4 0 0 1 4 4v496a4 4 0 0 1-4 4H109a4 4 0 0 1-4-4V43a4 4 0 0 1 1.172-2.828"/></g><defs><clipPath id="b"><path d="M76 63h1048a4 4 0 0 1 4 4v496a4 4 0 0 1-4 4H76a4 4 0 0 1-4-4V67a4 4 0 0 1 4-4"/></clipPath></defs><path fill="#fefbfb" d="M76 63h1048a4 4 0 0 1 4 4v496a4 4 0 0 1-4 4H76a4 4 0 0 1-4-4V67a4 4 0 0 1 4-4"/><path clip-path="url(#b)" fill="none" stroke="#000" stroke-width="8" d="M73.172 64.172A4 4 0 0 1 76 63h1048a4 4 0 0 1 4 4v496a4 4 0 0 1-4 4H76a4 4 0 0 1-4-4V67a4 4 0 0 1 1.172-2.828"/><clipPath id="c"><path d="M128 103h944v94H128z"/></clipPath><mask id="d"><path fill="#fff" d="M128 103h944v94H128z"/></mask><path d="M157.6 183v-7.2h-.7q-.6 1.6-1.5 3-1 1.5-2.3 2.6-1.4 1.1-3.2 1.8-1.9.6-4.2.6-3.7 0-6.5-1.7t-4.8-5.1q-1.9-3.3-2.9-8-1-4.8-1-10.7 0-12.9 4.7-19.7 4.7-6.8 14.5-6.8 3.9 0 6.8 1.1 3 1 5.1 2.9 2.1 1.9 3.5 4.6 1.3 2.7 2.1 5.9l-10 2.5q-.5-1.6-1-3.1-.6-1.5-1.4-2.6-.9-1.2-2.2-1.9-1.3-.7-3.1-.7-4.1 0-5.8 3.4-1.7 3.4-1.7 9.5v8.2q0 6.2 1.8 9.8 1.8 3.7 6.5 3.7 3.7 0 5.5-2.2 1.8-2.1 1.8-5.5v-3.7H149v-7.6h18.2V183h-9.6Zm30.2 0H177v-50.3h33.3v8.9h-22.5v11.5h20.1v8.8h-20.1V183Zm47.4.8q-6.3 0-11-2.1t-7.6-5.7l6.3-6.9q2.7 3.1 6 4.5t6.7 1.4q3.9 0 5.9-1.7 2-1.7 2-5 0-2.6-1.6-4-1.5-1.4-5.2-1.9l-5.2-.9q-6.8-1.2-9.8-5-3.1-3.9-3.1-9.4 0-7.3 4.8-11.3 4.8-4 13.3-4 5.9 0 10.2 1.8 4.3 1.8 7 4.9l-6.2 6.9q-2-2.3-4.7-3.5-2.8-1.3-6.2-1.3-7.3 0-7.3 6 0 2.6 1.6 3.9 1.7 1.3 5.3 1.9l5.3 1q6.1 1 9.4 4.6 3.3 3.5 3.3 9.5 0 3.5-1.2 6.5t-3.7 5.2q-2.4 2.2-6 3.4-3.5 1.2-8.3 1.2Z" clip-path="url(#c)" mask="url(#d)"/><path d="M130.7 520.3v-20.7h2.2v8.6h.1q1.4-2.7 4.5-2.7 2.6 0 4.1 2 1.5 2 1.5 5.5 0 3.6-1.5 5.6-1.5 2-4.1 2-3.1 0-4.5-2.7h-.1v2.4h-2.2Zm5.9-1.7q2 0 3-1.2 1.1-1.2 1.1-3.1v-2.5q0-1.9-1.1-3.1-1-1.2-3-1.2-.8 0-1.4.2-.7.2-1.2.5-.5.4-.8 1-.3.5-.3 1.2v5.3q0 .7.3 1.2.3.6.8.9.5.4 1.2.6.6.2 1.4.2Zm18.8-6.7 2.5-6.1h2.2l-7.2 17.6q-.2.7-.5 1.1-.3.5-.7.8-.5.3-1 .4-.6.2-1.4.2h-2.2V524h3.4l1.6-4-5.8-14.2h2.3l2.4 6.1 2.2 5.5h.1l2.1-5.5Z"/><clipPath id="e"><path d="M178 489h151v36H178z"/></clipPath><mask id="f"><path fill="#fff" d="M178 489h151v36H178z"/></mask><path d="M186.1 520.4q-2.5 0-4.3-.8-1.8-.8-2.9-2.2l2.4-2.7q1.1 1.2 2.3 1.8 1.3.5 2.6.5 1.5 0 2.3-.7.8-.6.8-1.9 0-1-.6-1.6-.6-.5-2-.7l-2.1-.4q-2.6-.4-3.8-1.9-1.1-1.5-1.1-3.7 0-2.8 1.8-4.3 1.8-1.6 5.2-1.6 2.2 0 3.9.7 1.7.7 2.7 1.9l-2.3 2.7q-.8-.9-1.9-1.4-1-.5-2.4-.5-2.8 0-2.8 2.4 0 1 .6 1.5t2.1.7l2 .4q2.4.4 3.7 1.8 1.3 1.3 1.3 3.7 0 1.3-.5 2.5t-1.4 2q-1 .9-2.4 1.4-1.4.4-3.2.4Zm24.7-.3h-2.4q-1.3 0-2-.7-.8-.6-1-1.9h-.1q-.4 1.5-1.6 2.2-1.1.7-2.8.7-2.1 0-3.4-1.1-1.2-1.1-1.2-3.2 0-2.3 1.6-3.3 1.7-1.1 4.9-1.1h2.3v-.8q0-1.3-.6-1.9-.6-.7-2.1-.7-1.3 0-2.1.5t-1.4 1.4l-2.3-2.1q.8-1.2 2.3-2 1.6-.8 4-.8 3 0 4.7 1.4 1.6 1.3 1.6 4.1v6.3h1.6v3Zm-8.3-2.4q1.1 0 1.8-.5.8-.6.8-1.6v-1.7h-2.2q-2.6 0-2.6 1.7v.6q0 .7.6 1.1.6.4 1.6.4Zm24 2.4h-5.4q-2.2 0-3.3-1.2-1.1-1.2-1.1-3v-7h-3.9v-3.3h2.5q.9 0 1.3-.3.4-.4.4-1.4v-3.4h3.8v5.1h5.7v3.3h-5.7v8h5.7v3.2Zm28.8 0-4.5-13h-.3v13h-3.6v-19.6h5l4.5 13h.3v-13h3.6v19.6h-5Zm22.7 0h-2.4q-1.3 0-2-.7-.8-.6-1-1.9h-.1q-.4 1.5-1.6 2.2-1.1.7-2.8.7-2.1 0-3.4-1.1-1.2-1.1-1.2-3.2 0-2.3 1.6-3.3 1.7-1.1 4.9-1.1h2.3v-.8q0-1.3-.6-1.9-.6-.7-2.1-.7-1.3 0-2.1.5t-1.4 1.4l-2.3-2.1q.8-1.2 2.3-2 1.6-.8 4-.8 3 0 4.7 1.4 1.6 1.3 1.6 4.1v6.3h1.6v3Zm-8.3-2.4q1.1 0 1.8-.5.8-.6.8-1.6v-1.7h-2.2q-2.6 0-2.6 1.7v.6q0 .7.6 1.1.6.4 1.6.4Zm18.4-13.9q-1.4 0-1.9-.6-.6-.6-.6-1.4v-.8q0-.8.6-1.4.5-.5 1.9-.5t1.9.5q.6.6.6 1.4v.8q0 .8-.6 1.4-.5.6-1.9.6Zm-6.7 16.3v-3.2h4.6v-8h-4.6v-3.3h8.8v11.3h4.2v3.2h-13Zm20.2 0h-4.2v-14.5h4.2v2.7h.1l.6-1.2q.4-.5.9-.9t1.2-.7q.7-.2 1.6-.2 1 0 1.9.4.9.3 1.5 1t.9 1.7q.4 1 .4 2.3v9.4h-4.2v-8.8q0-2.8-2.4-2.8-.5 0-.9.1-.5.2-.9.4-.3.3-.5.7-.2.4-.2.9v9.5Zm27.1 1.4q0 2.3-1.9 3.4t-6.1 1.1q-2.1 0-3.4-.2-1.3-.2-2.1-.7-.8-.4-1.2-1.1-.3-.6-.3-1.3 0-1.2.7-1.9.8-.6 2.1-.9v-.2q-.9-.3-1.5-.8-.5-.5-.5-1.5t.7-1.5q.7-.5 1.9-.8v-.2q-1.3-.6-2-1.7t-.7-2.7q0-1.3.4-2.3.5-.9 1.3-1.6.8-.6 2-1 1.1-.3 2.5-.3t2.6.3v-.8q0-.8.6-1.4.6-.5 1.6-.5h2.5v3h-3.4v.2q1.1.7 1.8 1.7.7 1.1.7 2.7 0 1.2-.5 2.2-.4.9-1.3 1.6-.8.6-2 1-1.1.3-2.6.3-.6 0-1.2-.1-.6 0-1.1-.2-.3.2-.5.5-.2.2-.2.6 0 .3.1.5.2.2.5.3.3.1.7.1.4.1.8.1h3.3q1.5 0 2.6.3t1.8.9q.7.5 1 1.3.3.7.3 1.6Zm-3.9.4q0-.6-.4-.9-.5-.3-1.8-.3h-4.9q-.6.4-.6 1.1 0 .7.6 1.1.6.5 2 .5h2.4q1.4 0 2.1-.4.6-.4.6-1.1Zm-4.2-8.9q1.3 0 1.9-.6.5-.7.5-1.6v-.7q0-.9-.5-1.5-.6-.7-1.9-.7-1.2 0-1.8.7-.5.6-.5 1.5v.7q0 .9.5 1.6.6.6 1.8.6Z" clip-path="url(#e)" mask="url(#f)"/><clipPath id="g"><path d="M1038 489h34v36h-34z"/></clipPath><mask id="h"><path fill="#fff" d="M1038 489h34v36h-34z"/></mask><path d="M1050.1 520.1v-8.7l.2-5.5h-.3l-3.6 10.1-3.6-10.1h-.3l.2 5.5v8.7h-3.6v-19.6h4.9l2.5 6.6h.2l2.4-6.6h4.6v19.6h-3.6Zm6.9 0v-19.6h6.8q2.9 0 4.4 1.4 1.6 1.4 1.6 3.9 0 1.6-.9 2.6-.8 1-2.3 1.5v.1q1.8.5 2.8 1.6 1 1.1 1 3.1 0 2.5-1.6 3.9-1.5 1.5-4.3 1.5h-7.5Zm4-2.9h2.2q1.5 0 2.2-.6.7-.5.7-1.8v-.8q0-1.4-.7-1.9t-2.2-.5h-2.2v5.6Zm0-8.4h1.6q1.5 0 2.2-.5.7-.4.7-1.7v-.9q0-1.3-.7-1.7-.7-.5-2.2-.5h-1.6v5.3Z" clip-path="url(#g)" mask="url(#h)"/></svg>