<?xml version="1.0" standalone="no"?>
<!DOCTYPE svg PUBLIC "-//W3C//DTD SVG 20010904//EN"
 "http://www.w3.org/TR/2001/REC-SVG-20010904/DTD/svg10.dtd">
<svg version="1.0" xmlns="http://www.w3.org/2000/svg"
 width="600.000000pt" height="600.000000pt" viewBox="0 0 600.000000 600.000000"
 preserveAspectRatio="xMidYMid meet">

	<g transform="translate(0.000000,600.000000) scale(0.100000,-0.100000)"
		fill="#2283D2" stroke="none">
<path d="M2839 5796 c-4 -4 -60 -11 -125 -16 -154 -13 -249 -27 -273 -40 -11
-5 -35 -10 -55 -10 -19 0 -38 -4 -41 -10 -3 -5 -19 -10 -35 -10 -16 0 -39 -4
-52 -9 -13 -5 -63 -21 -113 -36 -49 -15 -99 -31 -110 -36 -11 -4 -30 -11 -42
-14 -13 -4 -23 -11 -23 -16 0 -5 -9 -9 -20 -9 -11 0 -28 -4 -38 -9 -9 -5 -44
-21 -77 -36 -119 -54 -262 -129 -286 -151 -8 -8 -19 -14 -22 -14 -14 0 -260
-173 -302 -213 -11 -10 -38 -33 -60 -50 -56 -45 -221 -211 -280 -281 -28 -33
-55 -64 -61 -70 -33 -35 -204 -281 -204 -295 0 -5 -6 -14 -13 -20 -8 -6 -24
-32 -38 -58 -13 -27 -34 -65 -46 -85 -13 -21 -23 -44 -23 -53 0 -8 -4 -15 -10
-15 -5 0 -10 -6 -10 -12 0 -7 -12 -38 -26 -68 -15 -30 -31 -66 -37 -80 -5 -14
-15 -38 -22 -55 -25 -60 -33 -81 -60 -170 -15 -49 -32 -100 -36 -113 -5 -13
-9 -35 -9 -50 0 -16 -5 -33 -11 -39 -5 -5 -11 -26 -11 -44 0 -19 -5 -43 -11
-54 -23 -44 -51 -355 -51 -555 0 -211 29 -513 54 -559 5 -11 10 -35 10 -55 0
-19 4 -38 10 -41 5 -3 10 -19 10 -35 0 -16 4 -39 9 -52 4 -13 21 -63 36 -113
27 -89 35 -110 60 -170 7 -16 17 -41 22 -55 6 -14 22 -50 37 -80 14 -30 26
-61 26 -68 0 -6 5 -12 10 -12 6 0 10 -7 10 -15 0 -9 10 -32 23 -53 12 -20 33
-58 46 -85 14 -26 30 -52 38 -58 7 -6 13 -15 13 -20 0 -19 165 -250 245 -344
65 -76 245 -256 320 -320 107 -91 316 -238 385 -271 8 -4 17 -10 20 -13 10
-11 147 -82 245 -126 33 -15 68 -31 77 -36 10 -5 27 -9 38 -9 11 0 20 -4 20
-9 0 -5 10 -12 23 -16 12 -3 31 -10 42 -14 11 -5 61 -21 110 -36 50 -15 100
-31 113 -36 13 -5 36 -9 52 -9 16 0 32 -4 35 -10 3 -5 22 -10 41 -10 20 0 44
-5 55 -10 46 -25 353 -55 559 -54 215 0 480 26 558 54 18 7 36 10 39 7 3 -4
21 0 40 8 20 8 48 15 64 15 15 0 31 4 34 10 3 5 16 10 28 10 19 0 60 12 132
40 11 4 38 13 60 19 22 7 54 18 70 26 17 7 41 17 55 23 22 8 157 70 200 91 8
4 38 20 65 36 28 15 59 33 70 39 219 122 528 376 685 565 25 30 52 61 61 70 8
9 26 32 39 51 14 19 32 43 41 53 29 32 146 207 165 247 4 8 10 17 13 20 3 3
16 25 29 49 12 24 28 55 36 70 20 37 87 181 98 211 6 14 16 39 23 55 8 17 19
48 26 70 6 22 15 49 20 60 4 11 15 45 24 75 10 30 21 65 26 78 5 13 9 33 9 44
0 12 4 35 9 52 82 275 99 727 42 1111 -5 33 -14 73 -20 88 -6 16 -11 43 -11
62 0 19 -4 36 -9 39 -5 3 -11 23 -14 43 -8 59 -17 95 -32 128 -7 17 -19 50
-25 75 -7 25 -16 54 -21 65 -4 11 -11 30 -14 43 -4 12 -11 22 -16 22 -5 0 -9
9 -9 20 0 11 -4 28 -9 38 -31 61 -61 129 -61 140 0 6 -4 12 -10 12 -5 0 -10 7
-10 15 0 9 -10 32 -23 53 -13 20 -26 44 -30 52 -4 8 -18 33 -32 55 -14 22 -28
47 -32 55 -21 45 -166 246 -253 350 -58 69 -243 256 -295 297 -22 17 -49 40
-60 50 -46 44 -288 213 -304 213 -5 0 -14 6 -20 13 -6 8 -32 24 -58 38 -27 13
-65 34 -85 46 -21 13 -44 23 -53 23 -8 0 -15 5 -15 10 0 6 -6 10 -12 10 -11 0
-79 30 -140 61 -10 5 -27 9 -38 9 -11 0 -20 4 -20 9 0 5 -10 12 -22 16 -13 3
-32 10 -43 14 -55 22 -154 54 -183 58 -18 3 -35 9 -38 14 -3 5 -23 9 -44 9
-21 0 -42 5 -45 10 -3 6 -22 10 -41 10 -20 0 -45 5 -57 11 -21 12 -94 23 -252
40 -119 12 -458 23 -466 15z m436 -172 c219 -28 288 -40 313 -53 11 -6 34 -11
51 -11 16 0 32 -4 35 -9 3 -5 20 -11 38 -14 78 -14 104 -20 113 -28 6 -4 33
-15 60 -24 28 -9 61 -21 75 -27 60 -25 96 -41 112 -49 10 -5 24 -9 32 -9 8 0
16 -4 18 -9 2 -7 45 -30 195 -105 13 -6 23 -14 23 -18 0 -5 5 -8 10 -8 6 0 23
-8 38 -18 15 -10 56 -38 92 -62 166 -111 374 -294 499 -441 77 -90 124 -149
135 -168 5 -8 23 -34 40 -57 17 -22 37 -50 43 -60 7 -10 24 -36 38 -57 14 -21
25 -42 25 -47 0 -6 3 -10 8 -10 4 0 12 -10 18 -23 6 -12 39 -78 74 -147 34
-69 69 -141 77 -160 8 -19 19 -43 24 -52 5 -10 9 -25 9 -33 0 -8 4 -23 10 -33
16 -29 60 -167 60 -190 0 -11 5 -24 10 -27 6 -3 10 -20 10 -36 0 -17 5 -40 11
-51 11 -21 19 -60 41 -218 16 -110 16 -647 0 -750 -26 -165 -30 -188 -41 -208
-6 -11 -11 -32 -11 -46 0 -14 -4 -35 -9 -48 -12 -32 -36 -110 -36 -123 -1 -10
-19 -53 -36 -87 -5 -10 -9 -25 -9 -33 0 -8 -4 -23 -9 -33 -4 -9 -16 -35 -26
-57 -9 -22 -21 -48 -26 -57 -5 -10 -9 -24 -9 -32 0 -8 -3 -16 -7 -18 -5 -1
-23 -32 -41 -68 -84 -167 -181 -316 -309 -475 -82 -101 -294 -316 -367 -370
-22 -17 -53 -42 -70 -56 -42 -34 -192 -139 -201 -139 -3 0 -21 -10 -38 -23
-18 -13 -49 -32 -69 -42 -21 -11 -38 -23 -38 -27 0 -5 -6 -8 -13 -8 -18 0 -75
-28 -82 -41 -4 -5 -15 -9 -26 -9 -10 0 -19 -4 -19 -10 0 -5 -7 -10 -15 -10 -8
0 -23 -4 -33 -9 -45 -25 -135 -60 -217 -86 -49 -15 -94 -32 -99 -36 -6 -5 -19
-9 -30 -9 -11 0 -33 -4 -50 -9 -73 -22 -123 -34 -156 -38 -19 -1 -42 -6 -50
-9 -45 -19 -197 -28 -465 -28 -297 0 -380 6 -530 39 -38 9 -87 18 -108 22 -21
3 -40 10 -43 14 -3 5 -18 9 -35 9 -16 0 -37 4 -47 9 -9 5 -53 22 -97 36 -44
14 -89 30 -100 35 -11 5 -38 16 -60 25 -60 25 -128 56 -145 66 -8 4 -35 19
-60 32 -83 43 -145 79 -161 93 -8 8 -19 14 -23 14 -4 0 -45 26 -89 57 -280
197 -515 436 -702 714 -68 101 -89 136 -143 241 -13 27 -28 50 -33 54 -5 3 -9
14 -9 25 0 10 -4 19 -10 19 -5 0 -10 7 -10 15 0 14 -4 24 -32 78 -12 23 -76
198 -85 232 -2 11 -8 29 -13 40 -9 20 -15 46 -29 120 -4 23 -11 47 -16 55 -5
8 -13 40 -17 70 -4 30 -13 91 -20 135 -16 106 -16 642 0 750 24 161 30 193 41
213 6 11 11 34 11 51 0 16 5 33 10 36 6 3 10 21 10 40 0 19 5 37 10 40 6 3 10
19 10 35 0 16 4 31 9 34 5 3 16 29 25 58 9 29 22 64 27 78 31 72 42 97 50 112
5 10 9 25 9 33 0 8 5 15 10 15 6 0 10 9 10 19 0 11 4 22 9 26 13 7 41 64 41
82 0 7 4 13 8 13 5 0 19 20 31 45 34 69 159 249 248 360 80 99 292 313 367
370 22 17 53 42 70 56 45 37 193 139 202 139 4 0 15 6 23 14 19 16 99 62 191
108 36 18 67 36 68 41 2 4 10 7 18 7 8 0 22 4 32 9 17 9 63 29 112 49 38 16
142 53 165 59 11 2 29 8 40 13 11 5 34 11 50 15 39 8 94 20 180 40 107 24 207
36 355 44 138 7 373 4 445 -5z"/>
<path d="M2855 5418 c-33 -4 -68 -9 -77 -11 -47 -6 -64 -89 -25 -125 21 -20
34 -22 140 -22 64 0 127 5 140 11 35 16 51 51 43 93 -12 61 -72 77 -221 54z"/>
<path d="M2395 5351 c-11 -5 -47 -16 -80 -26 -33 -9 -68 -21 -77 -26 -10 -5
-25 -9 -33 -9 -15 0 -23 -3 -83 -33 -19 -9 -39 -17 -46 -17 -7 0 -26 -6 -42
-14 -16 -8 -63 -30 -104 -50 -133 -64 -332 -188 -439 -274 -104 -82 -312 -290
-384 -382 -125 -159 -279 -418 -337 -565 -7 -20 -18 -46 -40 -100 -6 -16 -18
-50 -26 -75 -8 -25 -19 -61 -26 -80 -23 -72 -44 -163 -57 -252 -5 -31 -12 -61
-16 -67 -6 -10 -12 -73 -32 -308 -7 -95 11 -139 63 -149 42 -8 77 8 93 43 6
13 11 76 11 141 0 64 7 155 15 202 32 174 36 196 46 226 5 17 9 40 9 51 0 11
7 34 15 49 8 16 15 37 15 46 0 9 5 20 10 23 6 3 10 15 10 25 0 17 13 51 67
180 15 34 32 68 80 160 29 54 32 59 109 180 66 102 75 113 174 229 79 92 133
146 230 231 41 36 77 68 78 73 2 4 10 7 18 7 8 0 14 4 14 8 0 12 210 147 310
200 30 16 64 34 75 39 11 6 38 19 60 28 22 9 58 26 81 36 22 10 48 19 57 19 9
0 19 5 22 10 3 6 17 10 30 10 13 0 26 4 29 9 4 5 24 12 46 16 22 4 42 11 46
16 3 5 18 9 33 9 53 0 101 41 101 87 0 58 -66 97 -125 74z"/>
<path d="M1550 4374 c-74 -27 -125 -53 -150 -76 -36 -32 -73 -86 -87 -128 -15
-42 -17 -196 -3 -205 6 -3 10 -18 10 -33 0 -22 139 -165 788 -815 433 -434
799 -795 814 -803 37 -19 120 -18 160 3 18 10 385 371 816 803 643 646 782
790 782 812 0 15 5 30 10 33 14 9 12 163 -3 205 -25 71 -85 139 -147 166 -19
9 -46 21 -59 28 -13 6 -51 11 -85 11 -57 0 -85 -7 -161 -41 -17 -7 -298 -281
-625 -608 -327 -328 -601 -596 -609 -596 -7 0 -279 266 -604 591 -325 325
-604 598 -621 607 -71 37 -186 61 -226 46z m107 -175 c15 -5 313 -294 663
-645 l636 -634 44 0 44 0 641 639 c679 678 660 662 739 647 45 -9 103 -67 112
-111 16 -88 52 -48 -766 -866 -417 -417 -764 -759 -770 -759 -6 0 -352 342
-770 759 -654 654 -760 764 -766 795 -22 119 85 216 193 175z"/>
<path d="M1502 3166 c-17 -7 -37 -17 -44 -24 -7 -7 -17 -12 -23 -12 -6 0 -27
-17 -47 -37 -31 -34 -45 -55 -79 -125 -5 -10 -9 -56 -9 -103 0 -47 4 -93 9
-103 4 -9 16 -33 26 -52 21 -42 1537 -1564 1579 -1585 35 -18 138 -20 169 -3
34 19 1556 1539 1575 1573 9 17 22 46 29 65 15 42 17 196 3 205 -5 3 -10 17
-10 30 0 12 -7 25 -15 29 -8 3 -15 11 -15 19 0 22 -72 83 -132 111 -45 21 -72
26 -132 26 -41 0 -78 -4 -81 -10 -3 -5 -15 -10 -25 -10 -10 0 -25 -7 -34 -15
-8 -8 -21 -15 -28 -15 -7 0 -281 -268 -608 -595 -327 -327 -602 -595 -610
-595 -8 0 -281 266 -605 590 -443 444 -601 596 -635 612 -25 11 -53 24 -62 29
-25 13 -157 9 -196 -5z m156 -161 c26 -11 229 -207 669 -648 628 -626 633
-632 673 -632 40 0 45 6 678 637 685 683 670 671 749 648 48 -13 65 -26 92
-70 23 -38 27 -83 11 -127 -13 -34 -1509 -1533 -1530 -1533 -21 0 -1517 1499
-1529 1533 -17 44 -13 89 10 127 26 42 44 57 84 69 43 13 51 13 93 -4z"/>
</g>
</svg>
